<svg xmlns="http://www.w3.org/2000/svg" xmlns:xlink="http://www.w3.org/1999/xlink" version="1.0" x="0px" y="0px" viewBox="0 0 100 100" enable-background="new 0 0 100 100" xml:space="preserve"><path d="M85.564,80H14.435C11.438,80,9,77.562,9,74.564V25.436C9,22.438,11.438,20,14.435,20h71.129C88.562,20,91,22.438,91,25.436  v49.129C91,77.562,88.562,80,85.564,80z M21.697,26.652c-2.11,0-3.826,1.717-3.826,3.827c0,2.11,1.717,3.826,3.826,3.826  c2.11,0,3.827-1.716,3.827-3.826C25.523,28.369,23.807,26.652,21.697,26.652z M33.697,26.652c-2.11,0-3.826,1.717-3.826,3.827  c0,2.11,1.717,3.826,3.826,3.826c2.11,0,3.827-1.716,3.827-3.826C37.523,28.369,35.807,26.652,33.697,26.652z M45.697,26.652  c-2.11,0-3.826,1.717-3.826,3.827c0,2.11,1.717,3.826,3.826,3.826c2.11,0,3.827-1.716,3.827-3.826  C49.523,28.369,47.807,26.652,45.697,26.652z M28,47v2h46v-2H28z M37,53v2h28v-2H37z"/></svg>